<svg xmlns="http://www.w3.org/2000/svg" xmlns:xlink="http://www.w3.org/1999/xlink" xmlns:lucid="lucid" width="1860" height="1320"><g transform="translate(0 0)" lucid:page-tab-id="0_0"><path d="M0 0h1870.87v1322.83H0z" fill="#fff"/><path d="M280 82a30 30 0 0 1 30-30h1500a30 30 0 0 1 30 30v1188a30 30 0 0 1-30 30H310a30 30 0 0 1-30-30z" stroke="#474747" fill-opacity="0"/><path d="M388 54.4v3.54c0 6.42-7.1 13.05-15.76 13.05h-46.48C317.1 71 310 64.35 310 57.93V54.4z" fill="#9d5125"/><path d="M340.03 20c8.03 0 14.82 4.4 18.17 11.67 4.6-3.14 10.92-1.98 14.04 2.65 1.17 1.64 1.7 3.32 1.8 5.3 7.87.68 13.95 8.25 13.95 14.27v1.3c0 6.45-7.1 13-15.76 13h-46.5c-8.64 0-15.74-6.55-15.74-13v-1.3c0-5.02 4.2-11.87 10.06-13.56v-.57c.08-10.95 8.97-19.82 19.97-19.77z" fill="#f58535"/><path d="M329.54 43.13l-5.2 18.2h3.04l1.17-4.43h5.38l1.1 4.43h3.05l-4.8-18.2zm-.47 11.4l2.22-8.98 2.1 8.97zM351.2 57.34h-.03l-2.47-14.2h-3.1l-2.4 14.13h-.06l-2.4-14.14h-2.95l3.53 18.2h3.38l2.35-13.7h.06l2.36 13.7h3.4l3.64-18.2h-2.9l-2.4 14.2zM365.9 51.4l-1.98-.72c-1.93-.7-2.74-1.53-2.74-3.1-.17-1.26.74-2.43 2-2.6.16-.02.3-.02.45-.02 1.26-.17 2.4.72 2.58 1.96.04.25.03.44 0 .68v.38h2.93v-.4c0-1.9-.5-4.8-5.18-4.8-3.44 0-5.7 1.84-5.7 5.16 0 2.6 1.1 3.97 3.82 5l2 .68c1.6.23 2.73 1.6 2.64 3.2.04 1.45-1.08 2.64-2.5 2.68h-.28c-2 0-3-1.12-3-3.33v-.47h-2.9v.44c0 2.54 1.02 5.53 5.52 5.53 3.7 0 6.07-1.6 6.07-5.48.04-2.5-1.1-3.9-3.7-4.8z" fill="#fff"/><path d="M500 142a30 30 0 0 1 30-30h1240a30 30 0 0 1 30 30v1108a30 30 0 0 1-30 30H530a30 30 0 0 1-30-30z" stroke="#474747" fill-opacity="0"/><path d="M608 114.4v3.54c0 6.42-7.1 13.05-15.76 13.05h-46.48c-8.66 0-15.75-6.64-15.75-13.06v-3.54z" fill="#9d5125"/><path d="M560.03 80c8.03 0 14.82 4.4 18.17 11.67 4.6-3.14 10.92-1.98 14.04 2.65 1.17 1.64 1.7 3.32 1.8 5.3 7.87.68 13.95 8.25 13.95 14.27v1.3c0 6.45-7.1 13-15.76 13h-46.5c-8.64 0-15.74-6.55-15.74-13v-1.3c0-5.02 4.2-11.87 10.06-13.56v-.57c.08-10.95 8.97-19.82 19.97-19.77z" fill="#f58535"/><path d="M548.9 103.13h3.08l3.1 14.58 3.32-14.54h3.1l-4.6 18.2h-3.7zM563.37 103.13h5.77c3.5 0 5.04 2.2 5.04 5.3 0 3.1-1.9 5.4-5.33 5.4h-2.57v7.53h-2.9zm2.9 8.5h2.08c1.56 0 2.9-.83 2.9-3.14 0-1.98-.78-3.17-3.1-3.17h-1.87zM587.8 114.83v.38c0 3.32-1.3 6.52-5.6 6.52-4.6 0-6.04-2.97-6.04-9.47s1.43-9.46 6.05-9.46c5.2 0 5.54 3.8 5.54 5.7v.37h-2.9v-.3c0-1.7-.5-3.64-2.6-3.57-2.08.08-3.1 1.35-3.1 7.22 0 5.87.92 7.3 3.14 7.3 2.42 0 2.7-2.7 2.7-4.42v-.3z" fill="#fff"/><use xlink:href="#a" transform="matrix(1,0,0,1,500,1250) translate(554.5061728395062 11.11111111111111)"/><use xlink:href="#b" transform="matrix(1,0,0,1,500,1250) translate(619.7530864197531 11.11111111111111)"/><use xlink:href="#c" transform="matrix(1,0,0,1,500,1250) translate(692.4691358024692 11.11111111111111)"/><path d="M640 170a30 30 0 0 1 30-30h1060a30 30 0 0 1 30 30v400a30 30 0 0 1-30 30H670a30 30 0 0 1-30-30z" fill-opacity="0"/><path d="M652.37 145.73l4-2.46 4.36-1.8 4.58-1.1h14.8m14.78 0l29.58-.02m14.78 0l29.58-.02m14.8 0h29.56m14.8-.02h29.56m14.8 0h29.57m14.8-.02h29.57m14.8 0l29.56-.02m14.8 0l29.56-.02m14.78 0h29.57m14.8-.02h29.57m14.78 0l29.58-.03m14.8 0l29.56-.02m14.8 0l29.56-.02m14.8 0h29.57m14.78-.02h29.58m14.78 0l29.6-.02m14.78 0l29.57-.02m14.8 0h29.56m14.8-.02h29.58m14.78 0l29.58-.02m14.8 0l29.56-.02m14.8 0h29.56m14.8-.02h29.57m14.78 0l14.8-.02 4.7.37 4.57 1.1 4.35 1.8m10.65 9.1l2.46 4 1.8 4.36 1.1 4.58v15m.03 14.98l.03 29.98m0 15l.03 29.97m0 15l.04 29.96m0 14.98l.04 29.98m.02 15l.03 29.97m0 14.98l.04 30m0 14.98l.03 29.98m.02 15l.02 29.96m.02 15V570l-.37 4.7-1.1 4.57-1.8 4.35m-9.1 10.65l-4 2.46-4.36 1.8-4.58 1.1h-14.8m-14.78 0l-29.58.02m-14.78 0l-29.58.02m-14.8 0h-29.56m-14.8.02h-29.56m-14.8 0h-29.57m-14.8.02h-29.57m-14.8 0l-29.56.02m-14.8 0l-29.56.02m-14.78 0h-29.57m-14.8.02h-29.57m-14.78 0l-29.58.03m-14.8 0l-29.56.02m-14.8 0l-29.56.02m-14.8 0h-29.57m-14.78.02h-29.58m-14.78 0l-29.6.02m-14.78 0l-29.57.02m-14.8 0H921.4m-14.8.02h-29.58m-14.78 0l-29.58.02m-14.8 0l-29.56.02m-14.8 0h-29.56m-14.8.02h-29.57m-14.78 0L670 600l-4.7-.37-4.57-1.1-4.35-1.8m-10.65-9.1l-2.46-4-1.8-4.36-1.1-4.58v-15m-.03-14.98l-.03-29.98m0-15l-.03-29.97m0-15l-.04-29.96m0-14.98l-.04-29.98m-.02-15l-.03-29.97m0-14.98l-.04-30m0-14.98l-.03-29.98m-.02-15l-.02-29.96m-.02-15V170l.37-4.7 1.1-4.57 1.8-4.35" stroke="#f7981f" stroke-width="3" fill="none"/><use xlink:href="#d" transform="matrix(1,0,0,1,640,570) translate(469.0432098765432 11.11111111111111)"/><use xlink:href="#e" transform="matrix(1,0,0,1,640,570) translate(579.4135802469135 11.11111111111111)"/><use xlink:href="#f" transform="matrix(1,0,0,1,640,570) translate(636.1419753086419 11.11111111111111)"/><path d="M640 790a30 30 0 0 1 30-30h1060a30 30 0 0 1 30 30v440a30 30 0 0 1-30 30H670a30 30 0 0 1-30-30z" fill-opacity="0"/><path d="M652.37 765.73l4-2.46 4.36-1.8 4.58-1.1h14.8m14.78 0l29.58-.02m14.78 0l29.58-.02m14.8 0h29.56m14.8-.02h29.56m14.8 0h29.57m14.8-.02h29.57m14.8 0l29.56-.02m14.8 0l29.56-.02m14.78 0h29.57m14.8-.02h29.57m14.78 0l29.58-.03m14.8 0l29.56-.02m14.8 0l29.56-.02m14.8 0h29.57m14.78-.02h29.58m14.78 0l29.6-.02m14.78 0l29.57-.02m14.8 0h29.56m14.8-.02h29.58m14.78 0l29.58-.02m14.8 0l29.56-.02m14.8 0h29.56m14.8-.02h29.57m14.78 0l14.8-.02 4.7.37 4.57 1.1 4.35 1.8m10.65 9.1l2.46 4 1.8 4.36 1.1 4.58v14.83m.03 14.82l.02 29.65m0 14.82l.04 29.65m0 14.82l.03 29.64m.02 14.82l.02 29.65m0 14.83l.03 29.65m0 14.82l.03 29.65m.02 14.82l.02 29.65m0 14.82l.04 29.64m0 14.83l.04 29.65m0 14.83l.02 14.82-.37 4.7-1.1 4.57-1.8 4.35m-9.1 10.65l-4 2.46-4.36 1.8-4.58 1.1h-14.8m-14.78 0l-29.58.02m-14.78 0l-29.58.02m-14.8 0h-29.56m-14.8.02h-29.56m-14.8 0h-29.57m-14.8.02h-29.57m-14.8 0l-29.56.02m-14.8 0l-29.56.02m-14.78 0h-29.57m-14.8.02h-29.57m-14.78 0l-29.58.03m-14.8 0l-29.56.02m-14.8 0l-29.56.02m-14.8 0h-29.57m-14.78.02h-29.58m-14.78 0l-29.6.02m-14.78 0l-29.57.02m-14.8 0H921.4m-14.8.02h-29.58m-14.78 0l-29.58.02m-14.8 0l-29.56.02m-14.8 0h-29.56m-14.8.02h-29.57m-14.78 0l-14.8.02-4.7-.37-4.57-1.1-4.35-1.8m-10.65-9.1l-2.46-4-1.8-4.36-1.1-4.58v-14.83m-.03-14.82l-.02-29.65m0-14.82l-.04-29.65m0-14.82l-.03-29.64m-.02-14.82l-.02-29.65m0-14.83l-.03-29.65m0-14.82l-.03-29.65m-.02-14.82l-.02-29.65m0-14.82l-.04-29.64m0-14.83l-.04-29.65m0-14.83L640 790l.37-4.7 1.1-4.57 1.8-4.35" stroke="#f7981f" stroke-width="3" fill="none"/><use xlink:href="#d" transform="matrix(1,0,0,1,640,1230) translate(469.0432098765432 11.11111111111111)"/><use xlink:href="#e" transform="matrix(1,0,0,1,640,1230) translate(579.4135802469135 11.11111111111111)"/><use xlink:href="#g" transform="matrix(1,0,0,1,640,1230) translate(636.1419753086419 11.11111111111111)"/><path d="M720 222a30 30 0 0 1 30-30h260a30 30 0 0 1 30 30v308a30 30 0 0 1-30 30H750a30 30 0 0 1-30-30z" stroke="#474747" fill-opacity="0"/><path d="M781.97 180.24v-5.9c0-7.25-5.88-13.13-13.12-13.13-7.24 0-13.12 5.9-13.12 13.14v5.9h6.64v-5.9c0-3.58 2.9-6.5 6.48-6.5 3.57 0 6.48 2.92 6.48 6.5v5.9h6.64z" fill="#876a22"/><path d="M781.98 180.26h5.42v20.83H750v-20.84h5.72v-7.1c0-7.28 5.87-13.16 13.13-13.16 7.26 0 13.13 5.88 13.13 13.15v7.1zm-6.66 0v-7.1c0-3.6-2.88-6.5-6.47-6.5-3.6 0-6.47 2.9-6.47 6.5v7.1h12.94z" fill="#daa835"/><path d="M750 201.1h37.4v.9H750z" fill="#876a22"/><use xlink:href="#h" transform="matrix(1,0,0,1,720,530) translate(82.28395061728396 11.11111111111111)"/><use xlink:href="#i" transform="matrix(1,0,0,1,720,530) translate(148.82716049382717 11.11111111111111)"/><use xlink:href="#j" transform="matrix(1,0,0,1,720,530) translate(225.37037037037038 11.11111111111111)"/><path d="M1100 222a30 30 0 0 1 30-30h540a30 30 0 0 1 30 30v308a30 30 0 0 1-30 30h-540a30 30 0 0 1-30-30z" stroke="#474747" fill-opacity="0"/><path d="M1161.97 180.24v-5.9c0-7.25-5.88-13.13-13.12-13.13-7.24 0-13.12 5.9-13.12 13.14v5.9h6.64v-5.9c0-3.58 2.9-6.5 6.48-6.5 3.57 0 6.48 2.92 6.48 6.5v5.9h6.64z" fill="#876a22"/><path d="M1161.98 180.26h5.42v20.83H1130v-20.84h5.72v-7.1c0-7.28 5.87-13.16 13.13-13.16 7.26 0 13.13 5.88 13.13 13.15v7.1zm-6.66 0v-7.1c0-3.6-2.88-6.5-6.47-6.5-3.6 0-6.47 2.9-6.47 6.5v7.1h12.94z" fill="#daa835"/><path d="M1130 201.1h37.4v.9H1130z" fill="#876a22"/><use xlink:href="#k" transform="matrix(1,0,0,1,1100,530) translate(217.96296296296296 11.11111111111111)"/><use xlink:href="#i" transform="matrix(1,0,0,1,1100,530) translate(293.14814814814815 11.11111111111111)"/><use xlink:href="#l" transform="matrix(1,0,0,1,1100,530) translate(369.69135802469134 11.11111111111111)"/><path d="M1100 902a30 30 0 0 1 30-30h540a30 30 0 0 1 30 30v308a30 30 0 0 1-30 30h-540a30 30 0 0 1-30-30z" stroke="#474747" fill-opacity="0"/><path d="M1161.97 860.24v-5.9c0-7.25-5.88-13.13-13.12-13.13-7.24 0-13.12 5.9-13.12 13.14v5.9h6.64v-5.9c0-3.58 2.9-6.5 6.48-6.5 3.57 0 6.48 2.92 6.48 6.5v5.9h6.64z" fill="#876a22"/><path d="M1161.98 860.26h5.42v20.83H1130v-20.84h5.72v-7.1c0-7.28 5.87-13.16 13.13-13.16 7.26 0 13.13 5.88 13.13 13.15v7.1zm-6.66 0v-7.1c0-3.6-2.88-6.5-6.47-6.5-3.6 0-6.47 2.9-6.47 6.5v7.1h12.94z" fill="#daa835"/><path d="M1130 881.1h37.4v.9H1130z" fill="#876a22"/><use xlink:href="#k" transform="matrix(1,0,0,1,1100,1210) translate(217.96296296296296 11.11111111111111)"/><use xlink:href="#i" transform="matrix(1,0,0,1,1100,1210) translate(293.14814814814815 11.11111111111111)"/><use xlink:href="#l" transform="matrix(1,0,0,1,1100,1210) translate(369.69135802469134 11.11111111111111)"/><path d="M720 902a30 30 0 0 1 30-30h260a30 30 0 0 1 30 30v308a30 30 0 0 1-30 30H750a30 30 0 0 1-30-30z" stroke="#474747" fill-opacity="0"/><path d="M781.97 860.24v-5.9c0-7.25-5.88-13.13-13.12-13.13-7.24 0-13.12 5.9-13.12 13.14v5.9h6.64v-5.9c0-3.58 2.9-6.5 6.48-6.5 3.57 0 6.48 2.92 6.48 6.5v5.9h6.64z" fill="#876a22"/><path d="M781.98 860.26h5.42v20.83H750v-20.84h5.72v-7.1c0-7.28 5.87-13.16 13.13-13.16 7.26 0 13.13 5.88 13.13 13.15v7.1zm-6.66 0v-7.1c0-3.6-2.88-6.5-6.47-6.5-3.6 0-6.47 2.9-6.47 6.5v7.1h12.94z" fill="#daa835"/><path d="M750 881.1h37.4v.9H750z" fill="#876a22"/><use xlink:href="#h" transform="matrix(1,0,0,1,720,1210) translate(82.28395061728396 11.11111111111111)"/><use xlink:href="#i" transform="matrix(1,0,0,1,720,1210) translate(148.82716049382717 11.11111111111111)"/><use xlink:href="#l" transform="matrix(1,0,0,1,720,1210) translate(225.37037037037038 11.11111111111111)"/><path d="M1140 250a30 30 0 0 1 30-30h460a30 30 0 0 1 30 30v920a30 30 0 0 1-30 30h-460a30 30 0 0 1-30-30z" fill-opacity="0"/><path d="M1146.6 231.34l1.3-1.53m7.9-6.18l.58-.35 4.35-1.8 4.58-1.1h15.8m15.82-.03h3.16m15.8 0l31.62-.04m15.8 0h3.16m15.8-.02l31.62-.03m15.8 0h3.17m15.8-.03l31.62-.02m15.8 0l3.16-.02m15.8 0l31.62-.03m15.8-.02h3.17m15.8 0l31.62-.04m15.8-.02h3.16m15.8 0l31.62-.04m15.8 0h3.17m15.8-.03h15.8l4.7.37 4.57 1.1.62.26m8.76 4.87l1.53 1.3m6.18 7.9l.35.58 1.8 4.35 1.1 4.58V260m0 14.68v2.94m.02 14.68v29.35m.02 14.68v2.94m0 14.68l.02 29.36m0 14.67v2.94m0 14.67v29.35m.02 14.68v2.94m0 14.67v29.37m.02 14.68v2.93m0 14.68l.02 29.36m0 14.67v2.93m0 14.68l.02 29.36m0 14.68v2.94m.02 14.67v29.36m0 14.7l.02 2.92m0 14.68v29.35m.02 14.68v2.94m0 14.68l.02 29.35m0 14.68v2.93m0 14.7l.02 29.35m0 14.67v2.94m.02 14.68v29.35m0 14.67v2.94m.02 14.68v29.36m.02 14.68v2.93m0 14.68l.02 29.36m0 14.66v2.94m0 14.68l.02 29.35m0 14.68v2.94m0 14.68l.02 14.68-.37 4.7-1.1 4.57-.26.62m-4.87 8.76l-1.3 1.53m-7.9 6.18l-.58.35-4.35 1.8-4.58 1.1h-15.8m-15.82.03h-3.16m-15.8 0l-31.62.04m-15.8 0h-3.16m-15.8.02l-31.62.03m-15.8 0h-3.17m-15.8.03l-31.62.02m-15.8 0l-3.16.02m-15.8 0l-31.62.03m-15.8.02h-3.17m-15.8 0l-31.62.04m-15.8.02H1268m-15.8 0l-31.62.04m-15.8 0h-3.17m-15.8.03H1170l-4.7-.37-4.57-1.1-.62-.26m-8.76-4.87l-1.53-1.3m-6.18-7.9l-.35-.58-1.8-4.35-1.1-4.58V1160m0-14.68v-2.94m-.02-14.68v-29.35m-.02-14.68v-2.94m0-14.68l-.02-29.36m0-14.67v-2.94m0-14.67v-29.35m-.02-14.68v-2.94m0-14.67v-29.37m-.02-14.68v-2.93m0-14.68l-.02-29.36m0-14.67v-2.93m0-14.68l-.02-29.36m0-14.68v-2.94m-.02-14.67V728.5m0-14.7l-.02-2.92m0-14.68v-29.35m-.02-14.68v-2.94m0-14.68l-.02-29.35m0-14.68v-2.93m0-14.7l-.02-29.35m0-14.67v-2.94m-.02-14.68V481.9m0-14.67v-2.94m-.02-14.68v-29.36m-.02-14.68v-2.93m0-14.68l-.02-29.36m0-14.66V341m0-14.68l-.02-29.35m0-14.68v-2.94m0-14.68L1140 250l.37-4.7 1.1-4.57.26-.62" stroke="#474747" stroke-width="3" fill="none"/><use xlink:href="#m" transform="matrix(1,0,0,1,1140,1170) translate(166.26543209876544 11.11111111111111)"/><use xlink:href="#n" transform="matrix(1,0,0,1,1140,1170) translate(218.1172839506173 11.11111111111111)"/><use xlink:href="#o" transform="matrix(1,0,0,1,1140,1170) translate(297.0061728395062 11.11111111111111)"/><path d="M335 682.36c0 31.8-25.76 57.63-57.5 57.63S220 714.16 220 682.35c0-31.8 25.76-57.63 57.5-57.63s57.5 25.82 57.5 57.63z" fill="#9d5025"/><path d="M220 677.62h115v4.73H220v-4.73z" fill="#9d5025"/><path d="M335 677.63c0 31.8-25.76 57.63-57.5 57.63S220 709.44 220 677.63c0-31.8 25.76-57.63 57.5-57.63s57.5 25.82 57.5 57.63z" fill="#f58536"/><path d="M234.15 683.36v-1.5c.43-7 4.33-12.8 10.65-15.86.6-12.86 11.52-22.8 24.43-22.12 8.05.38 14.8 4.5 18.88 11.47 6.6-2.77 14.13.28 16.9 6.82.43.95.7 1.72.86 2.67 8.67 1.72 14.9 10.03 14.9 17.02v1.4c0 8.53-8.83 16-18.88 16h-48.94c-9.96.07-18.8-7.42-18.8-15.9z" fill="#fff"/><path d="M289.27 661.48l-3.67 2.54-1.87-4.06c-2.85-6.34-8.7-10.23-15.66-10.27H268c-9.52 0-17.3 7.77-17.3 17.38v3.23l-2.7.8c-4.57 1.83-7.57 5.85-7.94 10.8v1.4c0 4.66 5.7 10.08 12.96 10.08h49c7.33 0 12.95-5.42 12.95-10.1v-1.4c0-4.7-5.25-10.87-11.3-11.35l-3.3-.26-.24-3.28c0-1.4-.44-2.54-1.2-3.68-2.17-3.2-6.5-3.98-9.66-1.8z" fill="#f58536"/><use xlink:href="#p" transform="matrix(1,0,0,1,220,740) translate(20.524691358024697 17.77777777777778)"/><use xlink:href="#q" transform="matrix(1,0,0,1,220,740) translate(16.172839506172842 44.44444444444444)"/><path d="M686 520a6 6 0 0 1-6-6V246a6 6 0 0 1 6-6h48a6 6 0 0 1 6 6v268a6 6 0 0 1-6 6z" stroke="#3a414a" fill="#fc9432"/><use xlink:href="#r" transform="matrix(6.123233995736766e-17,-1,1,6.123233995736766e-17,685,515) translate(83.20987654320989 30.27777777777778)"/><use xlink:href="#s" transform="matrix(6.123233995736766e-17,-1,1,6.123233995736766e-17,685,515) translate(154.69135802469134 30.27777777777778)"/><path d="M706 1200a6 6 0 0 1-6-6V926a6 6 0 0 1 6-6h48a6 6 0 0 1 6 6v268a6 6 0 0 1-6 6z" stroke="#3a414a" fill="#fc9432"/><use xlink:href="#r" transform="matrix(6.123233995736766e-17,-1,1,6.123233995736766e-17,705,1195) translate(83.20987654320989 30.27777777777778)"/><use xlink:href="#s" transform="matrix(6.123233995736766e-17,-1,1,6.123233995736766e-17,705,1195) translate(154.69135802469134 30.27777777777778)"/><path d="M955 372.36c0 31.8-25.76 57.63-57.5 57.63S840 404.16 840 372.35c0-31.8 25.76-57.63 57.5-57.63s57.5 25.82 57.5 57.63z" fill="#9d5025"/><path d="M955 367.63c0 31.8-25.76 57.63-57.5 57.63S840 399.44 840 367.63c0-31.8 25.76-57.63 57.5-57.63s57.5 25.82 57.5 57.63z" fill="#f58536"/><path d="M913.06 340.86h6.06v53.5h-6.06v-53.5zM930.1 354.4L946 367.38l-15.87 13.48V354.4z" fill="#fff"/><path d="M873.98 364.6l3.5 2.8-3.85 3.26h59.15v-6.06h-58.8zM873.63 343.9h45.5v-6.06h-45.14l3.45 2.82-3.82 3.25zM877.45 394.15l-3.82 3.26h45.5v-6.06h-45.14l3.45 2.8zM861 357.04l12.68 10.35-12.7 10.8v-21.16zM861 330.3l12.68 10.35-12.7 10.8v-21.16zM861 383.8l12.68 10.36-12.7 10.78V383.8z" fill="#fff"/><use xlink:href="#t" transform="matrix(1,0,0,1,840,430) translate(10.49382716049383 17.77777777777778)"/><use xlink:href="#u" transform="matrix(1,0,0,1,840,430) translate(62.28395061728395 17.77777777777778)"/><use xlink:href="#q" transform="matrix(1,0,0,1,840,430) translate(16.172839506172842 44.44444444444444)"/><path d="M955 1062.36c0 31.8-25.76 57.63-57.5 57.63s-57.5-25.83-57.5-57.64c0-31.8 25.76-57.63 57.5-57.63s57.5 25.82 57.5 57.63z" fill="#9d5025"/><path d="M955 1057.63c0 31.8-25.76 57.63-57.5 57.63s-57.5-25.82-57.5-57.63c0-31.8 25.76-57.63 57.5-57.63s57.5 25.82 57.5 57.63z" fill="#f58536"/><path d="M913.06 1030.86h6.06v53.5h-6.06v-53.5zM930.1 1044.4l15.88 12.97-15.87 13.48v-26.44z" fill="#fff"/><path d="M873.98 1054.6l3.5 2.8-3.85 3.26h59.15v-6.06h-58.8zM873.63 1033.9h45.5v-6.06h-45.14l3.45 2.82-3.82 3.25zM877.45 1084.15l-3.82 3.26h45.5v-6.06h-45.14l3.45 2.8zM861 1047.04l12.68 10.35-12.7 10.8v-21.16zM861 1020.3l12.68 10.35-12.7 10.8v-21.16zM861 1073.8l12.68 10.36-12.7 10.78v-21.14z" fill="#fff"/><use xlink:href="#t" transform="matrix(1,0,0,1,840,1120) translate(10.49382716049383 17.77777777777778)"/><use xlink:href="#u" transform="matrix(1,0,0,1,840,1120) translate(62.28395061728395 17.77777777777778)"/><use xlink:href="#q" transform="matrix(1,0,0,1,840,1120) translate(16.172839506172842 44.44444444444444)"/><path d="M1299.78 315.36h75.44c19.78 0 19.78 0 19.78 19.72v75.2c0 19.7 0 19.7-19.78 19.7h-75.44c-19.78 0-19.78 0-19.78-19.7v-75.2c0-19.72 0-19.72 19.78-19.72z" fill="#9d5025"/><path d="M1299.78 310h75.44c19.78 0 19.78 0 19.78 19.72v75.2c0 19.7 0 19.7-19.78 19.7h-75.44c-19.78 0-19.78 0-19.78-19.7v-75.2c0-19.72 0-19.72 19.78-19.72z" fill="#f58536"/><use xlink:href="#v" transform="matrix(1,0,0,1,1280,430) translate(34.907407407407405 17.77777777777778)"/><use xlink:href="#w" transform="matrix(1,0,0,1,1280,430) translate(3.271604938271601 44.44444444444444)"/><path d="M1319.78 265.36h75.44c19.78 0 19.78 0 19.78 19.72v75.2c0 19.7 0 19.7-19.78 19.7h-75.44c-19.78 0-19.78 0-19.78-19.7v-75.2c0-19.72 0-19.72 19.78-19.72z" fill="#9d5025"/><path d="M1319.78 260h75.44c19.78 0 19.78 0 19.78 19.72v75.2c0 19.7 0 19.7-19.78 19.7h-75.44c-19.78 0-19.78 0-19.78-19.7v-75.2c0-19.72 0-19.72 19.78-19.72z" fill="#f58536"/><use xlink:href="#v" transform="matrix(1,0,0,1,1300,380) translate(34.907407407407405 17.77777777777778)"/><use xlink:href="#w" transform="matrix(1,0,0,1,1300,380) translate(3.271604938271601 44.44444444444444)"/><path d="M1299.78 1005.36h75.44c19.78 0 19.78 0 19.78 19.72v75.2c0 19.7 0 19.7-19.78 19.7h-75.44c-19.78 0-19.78 0-19.78-19.7v-75.2c0-19.72 0-19.72 19.78-19.72z" fill="#9d5025"/><path d="M1299.78 1000h75.44c19.78 0 19.78 0 19.78 19.72v75.2c0 19.7 0 19.7-19.78 19.7h-75.44c-19.78 0-19.78 0-19.78-19.7v-75.2c0-19.72 0-19.72 19.78-19.72z" fill="#f58536"/><use xlink:href="#v" transform="matrix(1,0,0,1,1280,1120) translate(34.907407407407405 17.77777777777778)"/><use xlink:href="#w" transform="matrix(1,0,0,1,1280,1120) translate(3.271604938271601 44.44444444444444)"/><path d="M1339.78 945.36h75.44c19.78 0 19.78 0 19.78 19.72v75.2c0 19.7 0 19.7-19.78 19.7h-75.44c-19.78 0-19.78 0-19.78-19.7v-75.2c0-19.72 0-19.72 19.78-19.72z" fill="#9d5025"/><path d="M1339.78 940h75.44c19.78 0 19.78 0 19.78 19.72v75.2c0 19.7 0 19.7-19.78 19.7h-75.44c-19.78 0-19.78 0-19.78-19.7v-75.2c0-19.72 0-19.72 19.78-19.72z" fill="#f58536"/><use xlink:href="#v" transform="matrix(1,0,0,1,1320,1060) translate(34.907407407407405 17.77777777777778)"/><use xlink:href="#w" transform="matrix(1,0,0,1,1320,1060) translate(3.271604938271601 44.44444444444444)"/><path d="M96.8 718.2c9.84 6.12 15.96 17.28 15.96 29.04 0 1.56-1.2 2.76-2.76 2.76H50c-1.56 0-2.76-1.2-2.76-2.76 0-14.64 9-27 21.6-31.8-5.4-3.6-8.88-9.6-8.88-16.44 0-11.04 9-19.92 20.04-19.92 11.16 0 20.16 8.88 20.16 19.92 0 6.84-3.48 12.84-8.88 16.44 1.92.72 3.72 1.68 5.52 2.76zm27.24-49.08c9.84 6.12 15.96 17.16 15.96 29.04 0 1.56-1.2 2.76-2.76 2.76h-30v-5.52h27.12c-.72-8.88-5.64-17.04-13.2-21.72-4.2-2.52-9-3.96-13.92-3.96-6.24 0-12.36 2.28-17.28 6.48l-3.6-4.08c3-2.52 6.24-4.44 9.72-5.76-5.4-3.6-8.88-9.6-8.88-16.44 0-11.04 9-19.92 20.16-19.92 11.04 0 20.04 8.88 20.04 19.92 0 6.84-3.48 12.84-8.88 16.44 1.92.72 3.84 1.68 5.52 2.76zM52.76 695.4v5.52h-30c-1.56 0-2.76-1.2-2.76-2.76 0-14.64 9-27 21.6-31.8-5.4-3.6-9-9.6-9-16.44 0-11.04 9.12-19.92 20.16-19.92 11.16 0 20.16 8.88 20.16 19.92 0 6.84-3.6 12.84-8.88 16.44 1.92.72 3.72 1.68 5.52 2.76 1.44.84 2.76 1.8 4.08 3l-3.6 4.08c-1.08-.96-2.16-1.68-3.36-2.52-4.2-2.52-9-3.96-13.92-3.96-14.16 0-25.8 11.28-27.12 25.68zm.12 49.2h54.24c-.84-9-5.76-17.16-13.2-21.84-4.2-2.52-9-3.96-13.92-3.96-14.16 0-25.8 11.28-27.12 25.8zm-14.76-94.68c0 7.92 6.6 14.4 14.64 14.4 8.16 0 14.64-6.48 14.64-14.4 0-8.04-6.48-14.52-14.64-14.52-8.04 0-14.64 6.48-14.64 14.52zm54.48 0c0 7.92 6.6 14.4 14.76 14.4 8.04 0 14.64-6.48 14.64-14.4 0-8.04-6.6-14.52-14.64-14.52-8.16 0-14.76 6.48-14.76 14.52zM65.36 699c0 7.92 6.6 14.4 14.64 14.4 8.16 0 14.76-6.48 14.76-14.4 0-8.04-6.6-14.4-14.76-14.4-8.04 0-14.64 6.36-14.64 14.4z" stroke="#000" stroke-opacity="0" fill="#242f3e"/><path d="M47.64 743.13l.35-2.65.1-.92 4.64-38.75-31.1-2.53 7.3-21.56 17.2-10.95-11.04-14.3 5.1-14.18 11.6-5.07 15.33 7.03 3.6 12.57-9.86 15 12.76 5.18 12.88.12 12.66-6-9.05-12.8 4.07-15.9 15.2-4.63 13.46 8.77 1.86 13.6-9.4 10.96 17.05 13.38 5.33 18.8-30.28 2.53 4.87 40.72-1.62 6h-62.2z" stroke="#000" stroke-opacity="0" fill-opacity="0"/><use xlink:href="#x" transform="matrix(1,0,0,1,-10,759) translate(66.55 14.4)"/><path d="M155.27 690h48.9" stroke="#3a414a" fill="none"/><path d="M140.5 690l14.27-4.64v9.28zM218.94 690l-14.27 4.64v-9.28z" stroke="#3a414a" fill="#3a414a"/><path d="M351.3 684.33h72.4" stroke="#3a414a" fill="none"/><path d="M336.53 684.33l14.27-4.64v9.27zM438.46 684.33l-14.27 4.64v-9.28z" stroke="#3a414a" fill="#3a414a"/><path d="M679.04 380h-213.4a6 6 0 0 0-6 6v202.32a6 6 0 0 0 6 6h33.5" stroke="#3a414a" fill="none"/><path d="M679.54 380.5h-.52v-1h.52zM499.65 594.82h-.5v-1h.5z" stroke="#3a414a" stroke-width=".05" fill="#3a414a"/><path d="M699.04 1060h-233.3a6 6 0 0 1-6-6V840.88a6 6 0 0 1 6-6h33.5" stroke="#3a414a" fill="none"/><path d="M699.54 1060.5h-.52v-1h.52zM499.73 835.38h-.5v-1h.5z" stroke="#3a414a" stroke-width=".05" fill="#3a414a"/><path d="M555 682.36c0 31.8-25.76 57.63-57.5 57.63S440 714.16 440 682.35c0-31.8 25.76-57.63 57.5-57.63s57.5 25.82 57.5 57.63z" fill="#9d5025"/><path d="M555 677.63c0 31.8-25.76 57.63-57.5 57.63S440 709.44 440 677.63c0-31.8 25.76-57.63 57.5-57.63s57.5 25.82 57.5 57.63z" fill="#f58536"/><path d="M514.27 631.08V652H480.7v-20.92h33.57zM540.22 691.64v17.04h-17v-17.04h17zM518.73 691.64v17.04h-17v-17.04h17zM492.56 691.64v17.04h-17v-17.04h17zM471.05 691.64v17.04h-17v-17.04h17z" fill="#fff"/><path d="M461.02 676.9h3.06v16.7h-3.06v-16.7z" fill="#fff"/><path d="M461.02 676.9h24.57v3.05H461v-3.06z" fill="#fff"/><path d="M482.53 676.9h3.06v16.7h-3.07v-16.7zM508.7 676.9h3.06v16.7h-3.06v-16.7z" fill="#fff"/><path d="M508.7 676.9h24.56v3.05H508.7v-3.06z" fill="#fff"/><path d="M530.2 676.9h3.06v16.7h-3.05v-16.7zM471.8 664.95h3.06v13.47h-3.06v-13.47zM495.96 648.92h3.06v16.28h-3.06v-16.28z" fill="#fff"/><path d="M471.8 663.67h50.77v3.06H471.8v-3.06z" fill="#fff"/><path d="M519.5 664.95h3.07v13.47h-3.06v-13.47z" fill="#fff"/><g><use xlink:href="#y" transform="matrix(1,0,0,1,440,740) translate(3.271604938271601 17.77777777777778)"/><use xlink:href="#z" transform="matrix(1,0,0,1,440,740) translate(32.808641975308646 44.44444444444444)"/><use xlink:href="#A" transform="matrix(1,0,0,1,440,740) translate(13.734567901234563 71.11111111111111)"/></g><path d="M740.96 380h99.1" stroke="#3a414a" fill="none"/><path d="M740.98 380.5h-.52v-1h.52zM840.62 380.5h-.58v-1h.44z" stroke="#3a414a" stroke-width=".05" fill="#3a414a"/><path d="M955.4 374.33h308.22" stroke="#3a414a" fill="none"/><path d="M955.43 374.83h-.54l.04-1h.5z" stroke="#3a414a" stroke-width=".05" fill="#3a414a"/><path d="M1278.38 374.33l-14.26 4.64v-9.28z" stroke="#3a414a" fill="#3a414a"/><path d="M760.96 1060h78.64" stroke="#3a414a" fill="none"/><path d="M760.98 1060.5h-.52v-1h.52zM840.1 1060.04l-.02.46h-.5v-1h.5z" stroke="#3a414a" stroke-width=".05" fill="#3a414a"/><path d="M955.4 1064.33h308.22" stroke="#3a414a" fill="none"/><path d="M955.43 1064.83h-.54l.04-1h.5z" stroke="#3a414a" stroke-width=".05" fill="#3a414a"/><path d="M1278.38 1064.33l-14.26 4.64v-9.28z" stroke="#3a414a" fill="#3a414a"/><defs><path fill="#3a414a" d="M108 0H70L1-190h34L89-25l56-165h34" id="B"/><path fill="#3a414a" d="M24-231v-30h32v30H24zM24 0v-190h32V0H24" id="C"/><path fill="#3a414a" d="M114-163C36-179 61-72 57 0H25l-1-190h30c1 12-1 29 2 39 6-27 23-49 58-41v29" id="D"/><path fill="#3a414a" d="M59-47c-2 24 18 29 38 22v24C64 9 27 4 27-40v-127H5v-23h24l9-43h21v43h35v23H59v120" id="E"/><path fill="#3a414a" d="M84 4C-5 8 30-112 23-190h32v120c0 31 7 50 39 49 72-2 45-101 50-169h31l1 190h-30c-1-10 1-25-2-33-11 22-28 36-60 37" id="F"/><path fill="#3a414a" d="M141-36C126-15 110 5 73 4 37 3 15-17 15-53c-1-64 63-63 125-63 3-35-9-54-41-54-24 1-41 7-42 31l-33-3c5-37 33-52 76-52 45 0 72 20 72 64v82c-1 20 7 32 28 27v20c-31 9-61-2-59-35zM48-53c0 20 12 33 32 33 41-3 63-29 60-74-43 2-92-5-92 41" id="G"/><path fill="#3a414a" d="M24 0v-261h32V0H24" id="H"/><g id="a"><use transform="matrix(0.06172839506172839,0,0,0.06172839506172839,0,0)" xlink:href="#B"/><use transform="matrix(0.06172839506172839,0,0,0.06172839506172839,11.11111111111111,0)" xlink:href="#C"/><use transform="matrix(0.06172839506172839,0,0,0.06172839506172839,15.987654320987653,0)" xlink:href="#D"/><use transform="matrix(0.06172839506172839,0,0,0.06172839506172839,23.333333333333332,0)" xlink:href="#E"/><use transform="matrix(0.06172839506172839,0,0,0.06172839506172839,29.50617283950617,0)" xlink:href="#F"/><use transform="matrix(0.06172839506172839,0,0,0.06172839506172839,41.85185185185185,0)" xlink:href="#G"/><use transform="matrix(0.06172839506172839,0,0,0.06172839506172839,54.197530864197525,0)" xlink:href="#H"/></g><path fill="#3a414a" d="M115-194c55 1 70 41 70 98S169 2 115 4C84 4 66-9 55-30l1 105H24l-1-265h31l2 30c10-21 28-34 59-34zm-8 174c40 0 45-34 45-75s-6-73-45-74c-42 0-51 32-51 76 0 43 10 73 51 73" id="I"/><path fill="#3a414a" d="M100-194c63 0 86 42 84 106H49c0 40 14 67 53 68 26 1 43-12 49-29l28 8c-11 28-37 45-77 45C44 4 14-33 15-96c1-61 26-98 85-98zm52 81c6-60-76-77-97-28-3 7-6 17-6 28h103" id="J"/><g id="b"><use transform="matrix(0.06172839506172839,0,0,0.06172839506172839,0,0)" xlink:href="#I"/><use transform="matrix(0.06172839506172839,0,0,0.06172839506172839,12.345679012345679,0)" xlink:href="#D"/><use transform="matrix(0.06172839506172839,0,0,0.06172839506172839,19.691358024691358,0)" xlink:href="#C"/><use transform="matrix(0.06172839506172839,0,0,0.06172839506172839,24.5679012345679,0)" xlink:href="#B"/><use transform="matrix(0.06172839506172839,0,0,0.06172839506172839,35.67901234567901,0)" xlink:href="#G"/><use transform="matrix(0.06172839506172839,0,0,0.06172839506172839,48.02469135802469,0)" xlink:href="#E"/><use transform="matrix(0.06172839506172839,0,0,0.06172839506172839,54.19753086419753,0)" xlink:href="#J"/></g><path fill="#3a414a" d="M96-169c-40 0-48 33-48 73s9 75 48 75c24 0 41-14 43-38l32 2c-6 37-31 61-74 61-59 0-76-41-82-99-10-93 101-131 147-64 4 7 5 14 7 22l-32 3c-4-21-16-35-41-35" id="K"/><path fill="#3a414a" d="M100-194c62-1 85 37 85 99 1 63-27 99-86 99S16-35 15-95c0-66 28-99 85-99zM99-20c44 1 53-31 53-75 0-43-8-75-51-75s-53 32-53 75 10 74 51 75" id="L"/><path fill="#3a414a" d="M85-194c31 0 48 13 60 33l-1-100h32l1 261h-30c-2-10 0-23-3-31C134-8 116 4 85 4 32 4 16-35 15-94c0-66 23-100 70-100zm9 24c-40 0-46 34-46 75 0 40 6 74 45 74 42 0 51-32 51-76 0-42-9-74-50-73" id="M"/><g id="c"><use transform="matrix(0.06172839506172839,0,0,0.06172839506172839,0,0)" xlink:href="#K"/><use transform="matrix(0.06172839506172839,0,0,0.06172839506172839,11.11111111111111,0)" xlink:href="#H"/><use transform="matrix(0.06172839506172839,0,0,0.06172839506172839,15.987654320987653,0)" xlink:href="#L"/><use transform="matrix(0.06172839506172839,0,0,0.06172839506172839,28.333333333333332,0)" xlink:href="#F"/><use transform="matrix(0.06172839506172839,0,0,0.06172839506172839,40.67901234567901,0)" xlink:href="#M"/></g><path fill="#3a414a" d="M205 0l-28-72H64L36 0H1l101-248h38L239 0h-34zm-38-99l-47-123c-12 45-31 82-46 123h93" id="N"/><path fill="#3a414a" d="M115-194c53 0 69 39 70 98 0 66-23 100-70 100C84 3 66-7 56-30L54 0H23l1-261h32v101c10-23 28-34 59-34zm-8 174c40 0 45-34 45-75 0-40-5-75-45-74-42 0-51 32-51 76 0 43 10 73 51 73" id="O"/><path fill="#3a414a" d="M179-190L93 31C79 59 56 82 12 73V49c39 6 53-20 64-50L1-190h34L92-34l54-156h33" id="P"/><g id="d"><use transform="matrix(0.06172839506172839,0,0,0.06172839506172839,0,0)" xlink:href="#N"/><use transform="matrix(0.06172839506172839,0,0,0.06172839506172839,14.382716049382715,0)" xlink:href="#B"/><use transform="matrix(0.06172839506172839,0,0,0.06172839506172839,25.493827160493826,0)" xlink:href="#G"/><use transform="matrix(0.06172839506172839,0,0,0.06172839506172839,37.839506172839506,0)" xlink:href="#C"/><use transform="matrix(0.06172839506172839,0,0,0.06172839506172839,42.71604938271605,0)" xlink:href="#H"/><use transform="matrix(0.06172839506172839,0,0,0.06172839506172839,47.592592592592595,0)" xlink:href="#G"/><use transform="matrix(0.06172839506172839,0,0,0.06172839506172839,59.93827160493827,0)" xlink:href="#O"/><use transform="matrix(0.06172839506172839,0,0,0.06172839506172839,72.28395061728395,0)" xlink:href="#C"/><use transform="matrix(0.06172839506172839,0,0,0.06172839506172839,77.1604938271605,0)" xlink:href="#H"/><use transform="matrix(0.06172839506172839,0,0,0.06172839506172839,82.03703703703704,0)" xlink:href="#C"/><use transform="matrix(0.06172839506172839,0,0,0.06172839506172839,86.91358024691358,0)" xlink:href="#E"/><use transform="matrix(0.06172839506172839,0,0,0.06172839506172839,93.08641975308642,0)" xlink:href="#P"/></g><path fill="#3a414a" d="M209 0H11v-25l151-195H24v-28h176v25L50-27h159V0" id="Q"/><path fill="#3a414a" d="M117-194c89-4 53 116 60 194h-32v-121c0-31-8-49-39-48C34-167 62-67 57 0H25l-1-190h30c1 10-1 24 2 32 11-22 29-35 61-36" id="R"/><g id="e"><use transform="matrix(0.06172839506172839,0,0,0.06172839506172839,0,0)" xlink:href="#Q"/><use transform="matrix(0.06172839506172839,0,0,0.06172839506172839,13.518518518518517,0)" xlink:href="#L"/><use transform="matrix(0.06172839506172839,0,0,0.06172839506172839,25.864197530864196,0)" xlink:href="#R"/><use transform="matrix(0.06172839506172839,0,0,0.06172839506172839,38.20987654320987,0)" xlink:href="#J"/></g><use transform="matrix(0.06172839506172839,0,0,0.06172839506172839,0,0)" xlink:href="#N" id="f"/><path fill="#3a414a" d="M160-131c35 5 61 23 61 61C221 17 115-2 30 0v-248c76 3 177-17 177 60 0 33-19 50-47 57zm-97-11c50-1 110 9 110-42 0-47-63-36-110-37v79zm0 115c55-2 124 14 124-45 0-56-70-42-124-44v89" id="S"/><use transform="matrix(0.06172839506172839,0,0,0.06172839506172839,0,0)" xlink:href="#S" id="g"/><path fill="#3a414a" d="M30-248c87 1 191-15 191 75 0 78-77 80-158 76V0H30v-248zm33 125c57 0 124 11 124-50 0-59-68-47-124-48v98" id="T"/><g id="h"><use transform="matrix(0.06172839506172839,0,0,0.06172839506172839,0,0)" xlink:href="#T"/><use transform="matrix(0.06172839506172839,0,0,0.06172839506172839,14.814814814814813,0)" xlink:href="#F"/><use transform="matrix(0.06172839506172839,0,0,0.06172839506172839,27.160493827160494,0)" xlink:href="#O"/><use transform="matrix(0.06172839506172839,0,0,0.06172839506172839,39.50617283950617,0)" xlink:href="#H"/><use transform="matrix(0.06172839506172839,0,0,0.06172839506172839,44.382716049382715,0)" xlink:href="#C"/><use transform="matrix(0.06172839506172839,0,0,0.06172839506172839,49.25925925925926,0)" xlink:href="#K"/></g><path fill="#3a414a" d="M185-189c-5-48-123-54-124 2 14 75 158 14 163 119 3 78-121 87-175 55-17-10-28-26-33-46l33-7c5 56 141 63 141-1 0-78-155-14-162-118-5-82 145-84 179-34 5 7 8 16 11 25" id="U"/><g id="i"><use transform="matrix(0.06172839506172839,0,0,0.06172839506172839,0,0)" xlink:href="#U"/><use transform="matrix(0.06172839506172839,0,0,0.06172839506172839,14.814814814814813,0)" xlink:href="#F"/><use transform="matrix(0.06172839506172839,0,0,0.06172839506172839,27.160493827160494,0)" xlink:href="#O"/><use transform="matrix(0.06172839506172839,0,0,0.06172839506172839,39.50617283950617,0)" xlink:href="#R"/><use transform="matrix(0.06172839506172839,0,0,0.06172839506172839,51.85185185185185,0)" xlink:href="#J"/><use transform="matrix(0.06172839506172839,0,0,0.06172839506172839,64.19753086419753,0)" xlink:href="#E"/></g><path fill="#3a414a" d="M27 0v-27h64v-190l-56 39v-29l58-41h29v221h61V0H27" id="V"/><use transform="matrix(0.06172839506172839,0,0,0.06172839506172839,0,0)" xlink:href="#V" id="j"/><g id="k"><use transform="matrix(0.06172839506172839,0,0,0.06172839506172839,0,0)" xlink:href="#T"/><use transform="matrix(0.06172839506172839,0,0,0.06172839506172839,14.814814814814813,0)" xlink:href="#D"/><use transform="matrix(0.06172839506172839,0,0,0.06172839506172839,22.160493827160494,0)" xlink:href="#C"/><use transform="matrix(0.06172839506172839,0,0,0.06172839506172839,27.037037037037038,0)" xlink:href="#B"/><use transform="matrix(0.06172839506172839,0,0,0.06172839506172839,38.14814814814815,0)" xlink:href="#G"/><use transform="matrix(0.06172839506172839,0,0,0.06172839506172839,50.49382716049383,0)" xlink:href="#E"/><use transform="matrix(0.06172839506172839,0,0,0.06172839506172839,56.66666666666667,0)" xlink:href="#J"/></g><path fill="#3a414a" d="M101-251c82-7 93 87 43 132L82-64C71-53 59-42 53-27h129V0H18c2-99 128-94 128-182 0-28-16-43-45-43s-46 15-49 41l-32-3c6-41 34-60 81-64" id="W"/><use transform="matrix(0.06172839506172839,0,0,0.06172839506172839,0,0)" xlink:href="#W" id="l"/><g id="m"><use transform="matrix(0.06172839506172839,0,0,0.06172839506172839,0,0)" xlink:href="#N"/><use transform="matrix(0.06172839506172839,0,0,0.06172839506172839,14.814814814814813,0)" xlink:href="#F"/><use transform="matrix(0.06172839506172839,0,0,0.06172839506172839,27.160493827160494,0)" xlink:href="#E"/><use transform="matrix(0.06172839506172839,0,0,0.06172839506172839,33.333333333333336,0)" xlink:href="#L"/></g><path fill="#3a414a" d="M177-190C167-65 218 103 67 71c-23-6-38-20-44-43l32-5c15 47 100 32 89-28v-30C133-14 115 1 83 1 29 1 15-40 15-95c0-56 16-97 71-98 29-1 48 16 59 35 1-10 0-23 2-32h30zM94-22c36 0 50-32 50-73 0-42-14-75-50-75-39 0-46 34-46 75s6 73 46 73" id="X"/><g id="n"><use transform="matrix(0.06172839506172839,0,0,0.06172839506172839,0,0)" xlink:href="#U"/><use transform="matrix(0.06172839506172839,0,0,0.06172839506172839,14.814814814814813,0)" xlink:href="#K"/><use transform="matrix(0.06172839506172839,0,0,0.06172839506172839,25.925925925925924,0)" xlink:href="#G"/><use transform="matrix(0.06172839506172839,0,0,0.06172839506172839,38.2716049382716,0)" xlink:href="#H"/><use transform="matrix(0.06172839506172839,0,0,0.06172839506172839,43.148148148148145,0)" xlink:href="#C"/><use transform="matrix(0.06172839506172839,0,0,0.06172839506172839,48.02469135802469,0)" xlink:href="#R"/><use transform="matrix(0.06172839506172839,0,0,0.06172839506172839,60.37037037037037,0)" xlink:href="#X"/></g><g id="o"><use transform="matrix(0.06172839506172839,0,0,0.06172839506172839,0,0)" xlink:href="#X"/><use transform="matrix(0.06172839506172839,0,0,0.06172839506172839,12.345679012345679,0)" xlink:href="#D"/><use transform="matrix(0.06172839506172839,0,0,0.06172839506172839,19.691358024691358,0)" xlink:href="#L"/><use transform="matrix(0.06172839506172839,0,0,0.06172839506172839,32.03703703703704,0)" xlink:href="#F"/><use transform="matrix(0.06172839506172839,0,0,0.06172839506172839,44.382716049382715,0)" xlink:href="#I"/></g><g id="p"><use transform="matrix(0.06172839506172839,0,0,0.06172839506172839,0,0)" xlink:href="#C"/><use transform="matrix(0.06172839506172839,0,0,0.06172839506172839,4.876543209876543,0)" xlink:href="#R"/><use transform="matrix(0.06172839506172839,0,0,0.06172839506172839,17.22222222222222,0)" xlink:href="#E"/><use transform="matrix(0.06172839506172839,0,0,0.06172839506172839,23.39506172839506,0)" xlink:href="#J"/><use transform="matrix(0.06172839506172839,0,0,0.06172839506172839,35.74074074074074,0)" xlink:href="#D"/><use transform="matrix(0.06172839506172839,0,0,0.06172839506172839,43.08641975308642,0)" xlink:href="#R"/><use transform="matrix(0.06172839506172839,0,0,0.06172839506172839,55.432098765432094,0)" xlink:href="#J"/><use transform="matrix(0.06172839506172839,0,0,0.06172839506172839,67.77777777777777,0)" xlink:href="#E"/></g><path fill="#3a414a" d="M206 0h-36l-40-164L89 0H53L-1-190h32L70-26l43-164h34l41 164 42-164h31" id="Y"/><g id="q"><use transform="matrix(0.06172839506172839,0,0,0.06172839506172839,0,0)" xlink:href="#X"/><use transform="matrix(0.06172839506172839,0,0,0.06172839506172839,12.345679012345679,0)" xlink:href="#G"/><use transform="matrix(0.06172839506172839,0,0,0.06172839506172839,24.691358024691358,0)" xlink:href="#E"/><use transform="matrix(0.06172839506172839,0,0,0.06172839506172839,30.864197530864196,0)" xlink:href="#J"/><use transform="matrix(0.06172839506172839,0,0,0.06172839506172839,43.20987654320987,0)" xlink:href="#Y"/><use transform="matrix(0.06172839506172839,0,0,0.06172839506172839,59.197530864197525,0)" xlink:href="#G"/><use transform="matrix(0.06172839506172839,0,0,0.06172839506172839,71.5432098765432,0)" xlink:href="#P"/></g><path fill="#3a414a" d="M30 0v-248h187v28H63v79h144v27H63v87h162V0H30" id="Z"/><path fill="#3a414a" d="M135-143c-3-34-86-38-87 0 15 53 115 12 119 90S17 21 10-45l28-5c4 36 97 45 98 0-10-56-113-15-118-90-4-57 82-63 122-42 12 7 21 19 24 35" id="aa"/><g id="r"><use transform="matrix(0.06172839506172839,0,0,0.06172839506172839,0,0)" xlink:href="#Z"/><use transform="matrix(0.06172839506172839,0,0,0.06172839506172839,14.814814814814813,0)" xlink:href="#H"/><use transform="matrix(0.06172839506172839,0,0,0.06172839506172839,19.691358024691354,0)" xlink:href="#G"/><use transform="matrix(0.06172839506172839,0,0,0.06172839506172839,32.03703703703703,0)" xlink:href="#aa"/><use transform="matrix(0.06172839506172839,0,0,0.06172839506172839,43.14814814814814,0)" xlink:href="#E"/><use transform="matrix(0.06172839506172839,0,0,0.06172839506172839,49.32098765432098,0)" xlink:href="#C"/><use transform="matrix(0.06172839506172839,0,0,0.06172839506172839,54.197530864197525,0)" xlink:href="#K"/></g><path fill="#3a414a" d="M33 0v-248h34V0H33" id="ab"/><g id="s"><use transform="matrix(0.06172839506172839,0,0,0.06172839506172839,0,0)" xlink:href="#ab"/><use transform="matrix(0.06172839506172839,0,0,0.06172839506172839,6.172839506172839,0)" xlink:href="#T"/><use transform="matrix(0.06172839506172839,0,0,0.06172839506172839,20.98765432098765,0)" xlink:href="#aa"/></g><path fill="#3a414a" d="M137 0h-34L2-248h35l83 218 83-218h36" id="ac"/><path fill="#3a414a" d="M212-179c-10-28-35-45-73-45-59 0-87 40-87 99 0 60 29 101 89 101 43 0 62-24 78-52l27 14C228-24 195 4 139 4 59 4 22-46 18-125c-6-104 99-153 187-111 19 9 31 26 39 46" id="ad"/><g id="t"><use transform="matrix(0.06172839506172839,0,0,0.06172839506172839,0,0)" xlink:href="#ac"/><use transform="matrix(0.06172839506172839,0,0,0.06172839506172839,14.814814814814813,0)" xlink:href="#T"/><use transform="matrix(0.06172839506172839,0,0,0.06172839506172839,29.629629629629626,0)" xlink:href="#ad"/></g><path fill="#3a414a" d="M190 0L58-211 59 0H30v-248h39L202-35l-2-213h31V0h-41" id="ae"/><path fill="#3a414a" d="M127-220V0H93v-220H8v-28h204v28h-85" id="af"/><g id="u"><use transform="matrix(0.06172839506172839,0,0,0.06172839506172839,0,0)" xlink:href="#ae"/><use transform="matrix(0.06172839506172839,0,0,0.06172839506172839,15.987654320987653,0)" xlink:href="#N"/><use transform="matrix(0.06172839506172839,0,0,0.06172839506172839,29.1358024691358,0)" xlink:href="#af"/></g><path fill="#3a414a" d="M266 0h-40l-56-210L115 0H75L2-248h35L96-30l15-64 43-154h32l59 218 59-218h35" id="ag"/><g id="v"><use transform="matrix(0.06172839506172839,0,0,0.06172839506172839,0,0)" xlink:href="#ag"/><use transform="matrix(0.06172839506172839,0,0,0.06172839506172839,20.493827160493826,0)" xlink:href="#J"/><use transform="matrix(0.06172839506172839,0,0,0.06172839506172839,32.839506172839506,0)" xlink:href="#O"/></g><g id="w"><use transform="matrix(0.06172839506172839,0,0,0.06172839506172839,0,0)" xlink:href="#N"/><use transform="matrix(0.06172839506172839,0,0,0.06172839506172839,14.814814814814813,0)" xlink:href="#I"/><use transform="matrix(0.06172839506172839,0,0,0.06172839506172839,27.160493827160494,0)" xlink:href="#I"/><use transform="matrix(0.06172839506172839,0,0,0.06172839506172839,39.50617283950617,0)" xlink:href="#H"/><use transform="matrix(0.06172839506172839,0,0,0.06172839506172839,44.382716049382715,0)" xlink:href="#C"/><use transform="matrix(0.06172839506172839,0,0,0.06172839506172839,49.25925925925926,0)" xlink:href="#K"/><use transform="matrix(0.06172839506172839,0,0,0.06172839506172839,60.37037037037037,0)" xlink:href="#G"/><use transform="matrix(0.06172839506172839,0,0,0.06172839506172839,72.71604938271605,0)" xlink:href="#E"/><use transform="matrix(0.06172839506172839,0,0,0.06172839506172839,78.88888888888889,0)" xlink:href="#C"/><use transform="matrix(0.06172839506172839,0,0,0.06172839506172839,83.76543209876543,0)" xlink:href="#L"/><use transform="matrix(0.06172839506172839,0,0,0.06172839506172839,96.11111111111111,0)" xlink:href="#R"/></g><path d="M232-93c-1 65-40 97-104 97C67 4 28-28 28-90v-158h33c8 89-33 224 67 224 102 0 64-133 71-224h33v155" id="ah"/><path d="M135-143c-3-34-86-38-87 0 15 53 115 12 119 90S17 21 10-45l28-5c4 36 97 45 98 0-10-56-113-15-118-90-4-57 82-63 122-42 12 7 21 19 24 35" id="ai"/><path d="M100-194c63 0 86 42 84 106H49c0 40 14 67 53 68 26 1 43-12 49-29l28 8c-11 28-37 45-77 45C44 4 14-33 15-96c1-61 26-98 85-98zm52 81c6-60-76-77-97-28-3 7-6 17-6 28h103" id="aj"/><path d="M114-163C36-179 61-72 57 0H25l-1-190h30c1 12-1 29 2 39 6-27 23-49 58-41v29" id="ak"/><g id="x"><use transform="matrix(0.05,0,0,0.05,0,0)" xlink:href="#ah"/><use transform="matrix(0.05,0,0,0.05,12.950000000000001,0)" xlink:href="#ai"/><use transform="matrix(0.05,0,0,0.05,21.950000000000003,0)" xlink:href="#aj"/><use transform="matrix(0.05,0,0,0.05,31.950000000000003,0)" xlink:href="#ak"/><use transform="matrix(0.05,0,0,0.05,37.900000000000006,0)" xlink:href="#ai"/></g><g id="y"><use transform="matrix(0.06172839506172839,0,0,0.06172839506172839,0,0)" xlink:href="#N"/><use transform="matrix(0.06172839506172839,0,0,0.06172839506172839,14.814814814814813,0)" xlink:href="#I"/><use transform="matrix(0.06172839506172839,0,0,0.06172839506172839,27.160493827160494,0)" xlink:href="#I"/><use transform="matrix(0.06172839506172839,0,0,0.06172839506172839,39.50617283950617,0)" xlink:href="#H"/><use transform="matrix(0.06172839506172839,0,0,0.06172839506172839,44.382716049382715,0)" xlink:href="#C"/><use transform="matrix(0.06172839506172839,0,0,0.06172839506172839,49.25925925925926,0)" xlink:href="#K"/><use transform="matrix(0.06172839506172839,0,0,0.06172839506172839,60.37037037037037,0)" xlink:href="#G"/><use transform="matrix(0.06172839506172839,0,0,0.06172839506172839,72.71604938271605,0)" xlink:href="#E"/><use transform="matrix(0.06172839506172839,0,0,0.06172839506172839,78.88888888888889,0)" xlink:href="#C"/><use transform="matrix(0.06172839506172839,0,0,0.06172839506172839,83.76543209876543,0)" xlink:href="#L"/><use transform="matrix(0.06172839506172839,0,0,0.06172839506172839,96.11111111111111,0)" xlink:href="#R"/></g><path fill="#3a414a" d="M30 0v-248h33v221h125V0H30" id="al"/><g id="z"><use transform="matrix(0.06172839506172839,0,0,0.06172839506172839,0,0)" xlink:href="#al"/><use transform="matrix(0.06172839506172839,0,0,0.06172839506172839,12.345679012345679,0)" xlink:href="#L"/><use transform="matrix(0.06172839506172839,0,0,0.06172839506172839,24.691358024691358,0)" xlink:href="#G"/><use transform="matrix(0.06172839506172839,0,0,0.06172839506172839,37.03703703703704,0)" xlink:href="#M"/></g><g id="A"><use transform="matrix(0.06172839506172839,0,0,0.06172839506172839,0,0)" xlink:href="#S"/><use transform="matrix(0.06172839506172839,0,0,0.06172839506172839,14.814814814814813,0)" xlink:href="#G"/><use transform="matrix(0.06172839506172839,0,0,0.06172839506172839,27.160493827160494,0)" xlink:href="#H"/><use transform="matrix(0.06172839506172839,0,0,0.06172839506172839,32.03703703703704,0)" xlink:href="#G"/><use transform="matrix(0.06172839506172839,0,0,0.06172839506172839,44.382716049382715,0)" xlink:href="#R"/><use transform="matrix(0.06172839506172839,0,0,0.06172839506172839,56.72839506172839,0)" xlink:href="#K"/><use transform="matrix(0.06172839506172839,0,0,0.06172839506172839,67.8395061728395,0)" xlink:href="#J"/><use transform="matrix(0.06172839506172839,0,0,0.06172839506172839,80.18518518518519,0)" xlink:href="#D"/></g></defs></g></svg>